HIERARCHY
ROOT hip
{
        OFFSET 0.000000 0.000000 0.000000
        CHANNELS 6 Xposition Yposition Zposition Zrotation Yrotation Xrotation
        JOINT abdomen
        {
                OFFSET 0.000000 20.688101 -0.731520
                CHANNELS 3 Zrotation Xrotation Yrotation
                JOINT chest
                {
                        OFFSET 0.000000 11.704300 -0.487680
                        CHANNELS 3 Zrotation Xrotation Yrotation
                        JOINT neck
                        {
                                OFFSET 0.000000 22.189400 -2.194560
                                CHANNELS 3 Zrotation Xrotation Yrotation
                                JOINT head
                                {
                                        OFFSET -0.243840 7.071330 1.219200
                                        CHANNELS 3 Zrotation Xrotation Yrotation
                                        End Site
                                        {
                                                OFFSET  0 0 0
                                        }
                                }
                        }
                        JOINT rCollar
                        {
                                OFFSET -2.682240 19.263399 -4.876800
                                CHANNELS 3 Zrotation Xrotation Yrotation
                                JOINT rShldr
                                {
                                        OFFSET -8.778240 -1.950730 1.463040
                                        CHANNELS 3 Zrotation Xrotation Yrotation
                                        JOINT rForeArm
                                        {
                                                OFFSET -28.174200 -1.711500 0.487680
                                                CHANNELS 3 Zrotation Xrotation Yrotation
                                                JOINT rHand
                                                {
                                                        OFFSET -22.587900 0.773209 7.071360
                                                        CHANNELS 3 Zrotation Xrotation Yrotation
                                                        End Site
                                                        {
                                                                OFFSET  0 0 0
                                                        }
                                                }
                                        }
                                }
                        }
                        JOINT lCollar
                        {
                                OFFSET 2.682240 19.263399 -4.876800
                                CHANNELS 3 Zrotation Xrotation Yrotation
                                JOINT lShldr
                                {
                                        OFFSET 8.778240 -1.950730 1.463040
                                        CHANNELS 3 Zrotation Xrotation Yrotation
                                        JOINT lForeArm
                                        {
                                                OFFSET 28.174200 -1.711500 0.487680
                                                CHANNELS 3 Zrotation Xrotation Yrotation
                                                JOINT lHand
                                                {
                                                        OFFSET 22.587900 0.773209 7.071360
                                                        CHANNELS 3 Zrotation Xrotation Yrotation
                                                        End Site
                                                        {
                                                                OFFSET  0 0 0
                                                        }
                                                }
                                        }
                                }
                        }
                }
        }
                JOINT rThigh
                {
                        OFFSET 0.000000 -1.706870 -2.194560
                        CHANNELS 3 Zrotation Xrotation Yrotation
                        JOINT rShin
                        {
                                OFFSET 0.000000 -36.819901 0.731520
                                CHANNELS 3 Zrotation Xrotation Yrotation
                                JOINT rFoot
                                {
                                        OFFSET 0.731520 -45.110401 -5.120640
                                        CHANNELS 3 Zrotation Xrotation Yrotation
                                        End Site
                                        {
                                                OFFSET -1.122100 -3.699640 12.103000
                                        }
                                }
                        }
                }
                JOINT lThigh
                {
                        OFFSET 0.000000 -1.706870 -2.194560
                        CHANNELS 3 Zrotation Xrotation Yrotation
                        JOINT lShin
                        {
                                OFFSET 0.000000 -36.819901 0.731520
                                CHANNELS 3 Zrotation Xrotation Yrotation
                                JOINT lFoot
                                {
                                        OFFSET -0.731520 -45.110401 -5.120640
                                        CHANNELS 3 Zrotation Xrotation Yrotation
                                        End Site
                                        {
                                                OFFSET 1.122100 -3.699640 12.103000
                                        }
                                }
                        }
                }
}
MOTION
Frames: 21
Frame Time: 0.0333333
-5.15112 36.4821 -1.0334 0 95.9773 0 0 0 0 0 0 0 0 0 0 0 0 0 0 0 0 0 0 0 0 0 0 0 0 0 0 0 0 0 0 0 0 0 0 0 0 0 0 0 0 0 0 0 0 0 0 0 0 0 0 0 0 0 0 0
-5.15112 36.4821 -1.0334 169.952 95.9773 193.375 -1.37844 -8.52406 2.91814 -0.002622 1.53554 0.926137 -5.76097 -6.79751 -3.91388 6.67515 -13.1457 -4.74481 0 0 0 84.742 -0.084821 -1.24718 -15.4786 -8.21415 28.5821 -0.275359 14.4108 2.07612 0 0 0 -83.1298 10.0692 -0.723385 15.972 -8.66771 -29.6111 0.393919 -17.5196 2.54389 12.3339 -54.5124 14.8179 -0.964133 57.1479 1.31394 1.33515 7.53086 22.2588 -4.50447 -58.2587 -1.22907 1.40378 64.0807 -1.89453 -0.483349 -16.2756 -2.25802
-5.85529 34.7505 -1.0974 170.276 96.7704 196.778 -1.63882 -9.14161 3.17977 0.181896 0.216015 1.05931 -6.47774 -7.2159 -4.0496 6.74347 -15.0524 -4.53148 0 0 0 88.2614 3.15495 -1.25528 -15.2336 -7.99981 28.0759 -0.252324 13.7411 1.9765 0 0 0 -86.7678 11.868 0.031451 16.3159 -8.98259 -30.3342 0.497126 -19.4895 2.85532 16.4949 -63.5912 17.653 -1.40863 65.387 1.77246 1.9439 7.31655 25.8124 -3.99536 -66.0337 0.713658 1.98588 70.6833 -2.49272 -1.90769 -19.6689 -5.55435
-6.53744 33.1659 -1.10828 170.683 98.2693 199.821 -2.63681 -9.53879 3.54691 0.727744 0.496288 1.23786 -6.71315 -8.32383 -4.05215 6.81195 -18.2797 -3.9946 0 0 0 89.4653 7.64536 0.407653 -15.0172 -7.81238 27.6305 -0.258458 14.0721 2.02336 0 0 0 -87.5517 14.5695 -1.56536 16.4745 -9.1315 -30.6716 0.586568 -21.0553 3.10752 25.3162 -72.7934 25.1549 -2.34381 73.7597 2.71618 1.83434 9.17034 26.1827 3.31301 -74.5645 9.88899 3.36581 77.91 -3.83547 -3.98202 -18.2716 -10.5834
-6.58146 32.1504 -0.989303 170.072 98.5028 197.975 -2.91586 -7.1888 3.68958 0.919868 1.08407 1.25614 -6.70055 -8.33606 -4.0045 6.82378 -20.2855 -3.71728 0 0 0 88.0793 9.6036 2.39295 -14.9445 -7.74874 27.4802 -0.289925 15.1135 2.17612 0 0 0 -85.051 16.9893 -4.71884 16.1983 -8.87276 -30.0878 0.486336 -19.343 2.83033 25.704 -74.8167 24.3572 -3.23874 77.6459 3.65266 1.31797 11.2119 27.7464 12.6028 -76.091 20.3549 5.11436 81.7884 -5.54716 -5.1972 -17.2755 -13.4372
-6.24373 32.1144 -0.914667 169.344 96.8894 195.434 -2.01395 -6.73825 2.67176 0.594312 1.07084 0.92752 -6.28161 -6.80391 -3.68634 6.33029 -18.3497 -3.75457 0 0 0 85.8332 5.38298 2.18906 -15.298 -8.05285 28.2061 -0.235588 13.5205 1.93951 0 0 0 -82.5903 14.4173 -5.26953 16.4669 -9.12539 -30.6586 0.425083 -18.1877 2.64729 19.1109 -72.5081 17.2236 -3.2008 76.9682 3.59388 1.67628 10.5003 28.595 8.65747 -73.4493 15.8913 4.85336 80.8634 -5.256 -5.87472 -17.6097 -14.5161
-5.82311 33.019 -0.902322 173.299 95.4673 198.259 -2.03306 -8.0808 1.50236 0.69816 1.90276 0.575874 -6.20263 -6.50052 -3.5719 6.55551 -14.9253 -3.83245 0 0 0 82.0431 -1.56669 2.011 -15.6632 -8.37724 28.9644 -0.196536 12.3319 1.76357 0 0 0 -79.8446 8.97744 -4.65633 17.7656 -10.4257 -33.484 0.551893 -20.5682 3.02494 13.9384 -68.8316 12.6942 -2.43668 73.1158 2.85857 0.954372 11.0073 25.9976 3.30592 -69.7003 10.2697 3.3157 76.606 -3.72859 -5.08902 -15.4302 -13.7966
-5.18268 34.9466 -0.750197 174.345 94.922 196.86 -2.3658 -7.83536 1.25519 1.28956 2.99632 0.452791 -5.93275 -5.78595 -3.61152 6.52567 -13.4954 -4.2009 0 0 0 76.9724 -7.60784 1.71356 -16.3677 -9.03104 30.4509 -0.092349 8.28007 1.17487 0 0 0 -75.6858 3.50905 -4.89598 18.8088 -11.5735 -35.8503 0.712328 -23.2034 3.45582 9.11737 -61.0273 8.27778 -1.41856 64.9196 1.90818 -1.07099 14.2125 20.9831 3.28055 -62.3705 10.2015 1.86477 68.8803 -2.30858 -3.12933 -9.27998 -12.2895
-4.48546 37.4879 -0.611445 174.239 94.5999 194.599 -2.40375 -7.96104 1.52223 1.11101 2.77417 0.516832 -5.08806 -3.71342 -3.56459 6.03887 -11.6017 -4.75631 0 -0 -0 71.2348 -13.5213 -0.63127 -17.0432 -9.69379 31.9075 -0.024466 4.46067 0.628189 0 -0 -0 -70.3488 -2.01939 -3.92388 19.4286 -12.3098 -37.3104 0.755754 -23.8973 3.57018 4.83145 -52.9173 4.7005 -0.782136 54.6417 1.22261 -2.89127 21.4902 12.6314 4.74325 -54.4797 11.5847 0.990908 59.0249 -1.45855 -0.320762 2.63718 -11.0554
-3.92926 39.9692 -0.571774 178.719 94.1147 197.65 -2.34072 -9.19954 1.12869 1.10325 2.89956 0.39937 -4.46238 -2.14731 -3.22006 5.35429 -8.53932 -4.54605 -0 0 -0 64.8117 -19.3751 -2.36476 -17.528 -10.188 32.9698 -0.005203 2.05906 0.289507 -0 0 -0 -65.2571 -7.66708 -3.01278 19.936 -12.9314 -38.5246 0.760546 -23.9673 3.58199 0.062044 -47.178 0.667942 -0.514073 45.8248 0.67261 -1.40191 29.5121 2.7039 6.77202 -48.6215 13.3327 0.600162 50.2905 -0.987011 1.3464 16.4141 -4.602
-3.54036 42.377 -0.543863 183.578 94.228 201.651 -2.52634 -10.5568 0.826282 1.15509 2.74595 0.326636 -4.18941 -0.208409 -3.02442 5.12994 -6.78081 -4.37477 0 -0 0 57.4768 -24.439 -3.43513 -17.9201 -10.601 33.8411 -2e-06 0.039413 0.005539 0 -0 0 -59.1577 -13.2211 -1.88329 20.3679 -13.4815 -39.5805 0.777066 -24.2069 3.62247 -2.93147 -43.1544 -0.15789 -0.365253 39.0249 0.423232 -0.456897 29.023 -0.045991 8.59882 -43.9202 13.9675 0.417889 43.8606 -0.720231 0.381883 16.9724 0.691222
-3.42043 44.3956 -0.502041 186.731 94.4798 204.669 -2.37333 -12.2919 0.647579 1.19196 3.00904 0.278291 -3.96368 2.29213 -2.91584 5.18801 -7.70192 -4.289 -0 -0 0 48.9675 -29.9084 -4.3211 -17.9999 -10.6865 34.0199 -0.004302 1.87239 0.263242 -0 -0 0 -51.8793 -18.6179 -1.23358 20.6188 -13.8103 -40.2039 0.721331 -23.3857 3.48434 -4.33055 -40.74 1.95578 -0.299492 36.0658 0.394042 -0.151208 14.0025 -3.9333 10.4563 -40.8532 13.728 0.356602 40.9612 -0.635042 0.449182 7.42157 4.10041
-3.34918 45.8935 -0.392816 185.692 94.1339 203.518 -1.91403 -13.9213 0.221985 1.27476 2.881 0.163911 -3.77994 5.58202 -2.85214 5.53733 -8.86508 -4.23443 0 -0 0 38.5655 -31.7464 -6.64178 -18.0794 -10.7723 34.1985 -0.002035 1.28804 0.181053 0 -0 0 -42.6005 -21.7745 0.313902 20.5966 -13.781 -40.1486 0.754797 -23.8832 3.56782 -6.19706 -38.3243 2.15791 -0.239583 33.8753 0.47577 -1.63454 -1.65094 -6.44464 13.6899 -38.4672 15.1641 0.32862 39.1718 -0.566003 1.26478 2.48008 10.4429
-3.21077 46.8404 -0.254731 183.488 93.6967 200.667 -1.73553 -14.3818 -0.081466 1.3853 2.91502 0.074167 -3.4028 6.83467 -2.82449 5.54217 -8.63002 -4.25636 0 -0 -0 27.4332 -33.6404 -8.84834 -17.8269 -10.5018 33.633 -0.003056 1.57829 0.22187 0 -0 -0 -33.1131 -24.5768 1.17878 20.3792 -13.4964 -39.6088 0.771303 -24.1237 3.60839 -8.09931 -34.9022 2.35868 -0.180653 30.759 0.509689 -3.37631 -10.1984 -9.23587 16.0059 -35.7609 14.7663 0.298675 37.2526 -0.487834 1.98483 1.647 17.0234
-2.99065 47.1251 -0.146552 184.587 93.5692 200.624 -1.73668 -14.0491 0.315516 1.63396 3.19081 0.168378 -3.66414 7.16858 -3.08917 5.75671 -8.11094 -4.71918 -0 0 -0 15.436 -36.4847 -11.3882 -17.2871 -9.9402 32.4398 -0.013191 3.27726 0.461096 -0 0 -0 -24.9911 -27.7989 1.06566 20.1069 -13.1468 -38.94 0.798161 -24.5083 3.67362 -10.4149 -31.4327 1.89984 -0.141525 28.1176 0.506182 -4.72962 -12.6852 -12.1556 18.3314 -32.7415 14.9029 0.277763 35.56 -0.398083 1.6974 3.19114 20.3431
-2.80245 46.8665 -0.0901663 186.335 93.6646 201.532 -1.61007 -14.2557 0.479156 1.86989 3.41251 0.202234 -4.12765 7.97637 -3.05882 5.94221 -7.68246 -4.58576 -0 -0 0 3.867 -39.3213 -12.9912 -16.654 -9.30933 31.0657 -0.033376 5.20758 0.73392 -0 -0 0 -16.7465 -30.1644 1.97703 19.8668 -12.8452 -38.3576 0.813311 -24.7218 3.70999 -12.477 -28.703 2.27006 -0.117277 25.8711 0.460504 -5.43315 -11.1138 -15.4212 20.2473 -30.0841 14.3237 0.256347 33.5957 -0.29418 0.788436 5.63156 21.2263
-2.65543 46.1287 -0.0527441 190.658 93.7304 205.447 -1.71901 -14.9901 0.234401 1.92661 3.63227 0.1391 -4.39565 8.86486 -2.894 6.00663 -7.06365 -4.23293 -0 0 0 -6.50412 -42.7929 -13.5461 -16.0497 -8.73338 29.7774 -0.058364 6.87738 0.971268 -0 0 0 -8.87314 -32.8716 3.13092 19.6439 -12.5703 -37.8222 0.749545 -23.806 3.55483 -14.3113 -26.7657 3.25051 -0.109101 24.1618 0.369765 -4.93065 -7.08456 -17.6228 20.9333 -27.9804 11.6022 0.227075 31.265 -0.212447 0.347958 6.66988 21.9348
-2.5431 44.8535 -0.00715077 195.179 93.6985 209.703 -1.85089 -15.7834 0.018038 1.95587 3.80553 0.083795 -4.8434 9.69748 -2.7691 6.04181 -6.40171 -3.94224 -0 0 -0 -16.4864 -46.4183 -14.074 -15.5154 -8.24461 28.6561 -0.091696 8.60548 1.21869 -0 0 -0 -1.6489 -35.5814 4.19455 19.4132 -12.2913 -37.2739 0.689331 -22.8967 3.40291 -16.2584 -26.0043 2.0118 -0.128798 23.828 0.212213 -2.82594 0.667756 -19.9397 21.2638 -26.5125 8.45133 0.204599 29.4598 -0.150605 -0.16734 7.69503 23.0386
-2.5512 42.8943 0.0993078 196.917 93.6108 211.45 -2.07003 -16.2832 -0.057164 1.88707 3.69371 0.074586 -4.98008 9.9515 -2.71955 5.8324 -5.72519 -3.8377 0 -0 0 -26.4114 -49.814 -15.1646 -15.0518 -7.83524 27.6953 -0.132976 10.3409 1.46947 0 -0 0 4.98583 -38.6642 5.12123 19.2866 -12.1402 -36.9749 0.647153 -22.2309 3.293 -18.3424 -27.4156 -2.22792 -0.191985 26.6814 0.046816 0.675648 11.1001 -18.4954 22.1621 -26.949 6.8127 0.208988 30.1407 -0.148389 -1.32538 10.6901 20.9104
-2.76913 40.2969 0.227114 191.664 93.3104 206.445 -1.73472 -16.4825 0.267557 1.61284 3.12752 0.165466 -5.22229 10.7278 -2.73677 6.02804 -5.87351 -3.84689 0 0 -0 -35.6776 -51.3894 -16.7184 -14.8314 -7.64529 27.2424 -0.148796 10.9298 1.55519 0 0 -0 10.8336 -41.5897 5.46342 19.1991 -12.0366 -36.7693 0.669914 -22.5933 3.3527 -20.1889 -30.8057 -7.81689 -0.286807 35.1725 0.36394 -0.699928 9.67979 -2.75277 24.1247 -29.2034 8.77043 0.260473 35.4474 -0.413853 0.582163 5.76538 12
-3.03717 37.7051 0.330184 186.433 93.1678 200.841 -1.40207 -15.0527 0.863761 1.3766 1.98726 0.321276 -5.4247 12.2823 -2.81038 6.28574 -7.86338 -4.00575 0 -0 0 -43.2626 -52.0941 -18.4291 -14.9721 -7.76616 27.5312 -0.172647 11.7589 1.67644 0 -0 0 15.4739 -44.9071 5.44655 19.1695 -12.0017 -36.6999 0.654305 -22.3455 3.31185 -22.7725 -34.991 -12.4446 -0.45085 44.2404 0.721875 -0.469432 7.86033 12.8097 27.4907 -31.2663 14.8937 0.399272 43.5233 -0.775039 0.643669 -3.36474 0.951925
